<?xml version="1.0" encoding="utf-8"?>
<!-- Generator: Adobe Illustrator 26.0.1, SVG Export Plug-In . SVG Version: 6.00 Build 0)  -->
<svg version="1.1" id="Layer_1" xmlns="http://www.w3.org/2000/svg" xmlns:xlink="http://www.w3.org/1999/xlink" x="0px" y="0px"
	 viewBox="0 0 600 600" style="enable-background:new 0 0 600 600;" xml:space="preserve">
<style type="text/css">
	.st0{fill:url(#SVGID_1_);}
	.st1{fill-opacity:0.86;}
</style>
<linearGradient id="SVGID_1_" gradientUnits="userSpaceOnUse" x1="463" y1="1720" x2="1045" y2="1720" gradientTransform="matrix(1 0 0 1 -454 -1420)">
	<stop  offset="0" style="stop-color:#FFDB6E"/>
	<stop  offset="1" style="stop-color:#FFBC5E"/>
</linearGradient>
<path class="st0" d="M9,300C9,139.3,139.3,9,300,9h133.7C520.5,9,591,79.4,591,166.3c0,0,0,0,0,0V300c0,160.7-130.3,291-291,291l0,0
	C139.3,591,9,460.7,9,300z"/>
<path class="st1" d="M159.6,288.4v-0.9c0-0.7,1.1-1.7,1.5-2.3c4.6-6.1,6.6-13.6,8.9-20.7c2.6-8,6-15.7,8.9-23.6
	c2.8-7.7,5.5-15.3,8.2-23.1c0.5-1.6,1.2-3.1,1.6-4.7c0.5-2.1,1.3-4.2,2.2-6.2c0.8-2.1,1.5-4.2,2-6.4c1.2-1.9,2.2-4,2.9-6.2
	c0.8-2.2,1.6-4.7,2.4-7.3c0.7-2.1,1.6-4.2,2.6-6.2c1.2-2.4,2.1-5,2.9-7.6c1.3-1.9,2.3-4,3.1-6.2c1-2.5,2.1-4.9,3.3-7.3l3.1-6.4
	c0.6-1.5,1.4-2.8,2.4-4c0.9-1,1.7-2.1,2.4-3.3l1.7-1.7c0.5-0.6,1-1.2,1.6-1.7l0.9-1.7h1.4c0-0.3,0.2-0.7,0.5-0.9h0.9
	c0.3,0,0.5-0.6,0.5-1.7h7c0.4-0.1,0.8,0.2,0.9,0.7c0,0.1,0,0.1,0,0.2c0,0.6,0.2,0.9,0.5,0.9c0.5,0,1,0.2,1.4,0.5s0.9,0.5,1.4,0.5
	l2.4,4.5c0,0.4,0,0.7,0.2,1.1c0.4,0.6,0.7,1.1,1.1,1.7c0,0.6,0.1,1.2,0.2,1.7c0.2,0.6,0.2,1.2,0.2,1.7c0.6,0,0.9,0.6,0.9,1.7v0.9
	c0.3,0,0.5,0.3,0.5,0.9v3.5c0,0.2,0.3,0.5,0.9,1.1V178c-0.6,1.8-0.9,3.8-0.9,5.7c0,2-0.2,4-0.5,6c-0.6,3.4-0.9,6.9-1.1,10.4
	c-0.2,3.5-0.5,6.9-1.1,10.4c-1.2,13.6-3,27.3-5.5,40.9c-0.6,6.9-1.4,13.9-2.2,20.8c-0.9,6.9-1.9,13.9-3.1,20.8
	c-0.6,6.9-1.4,14-2.2,21.2c-1.1,7.2-1.8,14.3-2.4,21.2c-0.6,7.2-1.1,14.3-1.6,21.2s-0.7,14.5-0.7,22.3c0,6.9,0.2,13.6,0.7,19.9
	c0.3,5.5,1,11,2,16.4c0.5,2.5,1.2,4.9,2,7.3c0.7,2.2,1.7,4.3,3.1,6.2c8,10.3,20.5,13.6,32,7s20.7-15.8,29.6-25.4
	c3.4-3.8,6.5-7.8,9.3-12.1c3.5-4.4,6.6-9.1,9.3-14c2.6-4.8,5.3-9.9,8-15c2.6-4.6,5.3-9.4,8.1-14.6c2.6-5,5.3-10.1,8.1-15.2
	c2.3-4.6,4.8-9.4,7.3-14.4c2.2-4.7,4.8-9.3,7.6-13.7c2.3-5.1,4.8-9.9,7.1-14.2c2.3-4.3,4.6-8.4,7.1-13.1c2.3-4.3,4.8-8.4,7.3-12.4
	c2.3-3.9,4.8-7.6,7.1-11.3c4.6-8.7,8.8-16.2,12.8-22.6c1.2-1.6,2.3-3.2,3.1-5c0.9-1.7,1.9-3.3,3.1-4.9c0.6-1.8,1.4-3.5,2.4-5
	c0.9-1.5,1.9-3.4,3.1-5.7c3.7-6,7.1-11.6,10.2-16.8c3.1-5.1,6.2-9.8,9.3-14c2.6-5.1,4.9-9.4,6.9-12.6s3.9-5.9,5.3-8.4
	c1.2-1.5,2-2.5,2.4-3.1c0.7-0.7,1.2-1.4,1.7-2.2l0.9-0.9c0.6-2.3,1.2-2.3,1.7,0v3.1c0,0.3-0.1,0.6-0.2,0.9c-0.2,0.4-0.2,0.9-0.2,1.4
	c-0.3,0.3-1.2,3-2.6,8.1c-1.5,3.6-2.8,7.2-4,10.9c-1.4,4.6-3,10-5,16.4c-2,5.4-4.4,11.5-6.9,18.1s-5.5,13.6-8.6,20.8
	c-0.5,2.2-1.3,4.3-2.4,6.2c-1.1,2.1-1.9,4.3-2.4,6.6l-2.9,5.3c-0.2,1.1-0.5,2.1-1.1,3.1c-0.6,1.1-1.1,2.2-1.6,3.3
	c-3.1,8.5-7.2,16.7-12.1,24.3c-2,5.1-4.1,9.9-6,14.2c-1.9,4.3-4.4,8.6-6.9,13.1c-2.3,4.3-4.9,8.6-7.6,13.1c-2.8,4.6-5.5,9-8.1,13.3
	c-2.5,4.4-5.4,8.7-8.4,12.8c-2.9,4.2-6,8.3-9.3,12.6c-2.9,3.7-6,7.5-9.3,11.3c-3.2,4-6.5,8.1-9.7,12.1c-15.2,19.4-33.1,38.6-52,54.5
	c-5.9,4.9-12.2,9.5-19.3,12.7c-3.8,1.8-7.9,3.1-12,3.8c-2.8,0.6-5.8,0.7-8.6,0.3c-2.8-0.6-5.4-1.7-7.8-3.3c-2.2-1.4-4.2-3.1-5.8-5.1
	c-2.7-3.3-4.6-7.2-6.4-11c-1.8-3.7-3.4-7.5-4.8-11.4c-1.1-3.8-2-7.6-2.6-11.5c-0.9-4.2-2.1-8.5-2.4-12.7c-0.4-4.4-1-8.8-1.5-13.2
	c-0.5-4.4-0.7-8.9-0.7-13.3c-0.3-4.6-0.5-8.9-0.5-13.1v-12.4c0.3-4.3,0.5-8.3,0.5-12.1c0-4.1,0.3-8.1,0.9-12.1
	c0.3-8.1,0.8-16.2,1.4-24.3c0.6-8,1.2-15.8,1.7-23.7c0.6-7.2,1.4-14.6,2.4-22.1c1.1-7.5,1.9-14.6,2.6-21.4c0.9-6,1.6-11.8,2.4-17.3
	s1.4-10.9,2-16.1c-0.6,2.9-1.6,5-3.1,6.2c-2,4.3-4,8.1-5.7,11.5c-1.9,3.5-4,7-6.2,10.4c-4.2,7.7-8.5,15.2-13.1,22.6
	c-1.7,2.9-3.6,5.8-5.2,8.8c-0.8,1.4-1.6,2.7-2.3,4.2c-0.4,0.8-0.9,1.5-1.3,2.2c-0.1,0.3-1,2-1.3,2c-1,1.6-2,3.2-3.1,4.8
	c-2.2,3.3-4.4,6.9-7.5,9.5c-0.4,0.4-0.8,0.7-1.3,1c-0.8,0.8-3.6,1.1-3.6,1.1S159.9,289.1,159.6,288.4z M229.6,181.5L229.6,181.5z
	 M230.5,181.5L230.5,181.5z"/>
</svg>
